<svg xmlns="http://www.w3.org/2000/svg" viewBox="0 0 24 24" fill="none">
  <path d="M5.93311 15.7334C10.5998 18.0667 13.3998 18.0667 18.0664 15.7334" stroke="white"
    stroke-linecap="round" stroke-linejoin="round" />
  <path
    d="M15.2667 17.1333L16.2 19C16.2 19 20.0932 17.7602 21.3333 15.7333C21.3333 14.8 21.8281 8.12983 18.5333 5.93333C17.1333 4.99999 14.8 4.53333 14.8 4.53333L13.8667 6.39999H12"
    stroke="white" stroke-linecap="round" stroke-linejoin="round" />
  <path
    d="M8.7597 17.1333L7.82637 19C7.82637 19 3.93313 17.7602 2.69303 15.7333C2.69303 14.8 2.19828 8.12983 5.49303 5.93333C6.89303 4.99999 9.22637 4.53333 9.22637 4.53333L10.1597 6.39999H12.0264"
    stroke="white" stroke-linecap="round" stroke-linejoin="round" />
  <path
    d="M8.7333 13.8668C7.9601 13.8668 7.3333 13.031 7.3333 12.0001C7.3333 10.9692 7.9601 10.1334 8.7333 10.1334C9.5065 10.1334 10.1333 10.9692 10.1333 12.0001C10.1333 13.031 9.5065 13.8668 8.7333 13.8668Z"
    stroke="white" stroke-linecap="round" stroke-linejoin="round" />
  <path
    d="M15.2665 13.8668C14.4933 13.8668 13.8665 13.031 13.8665 12.0001C13.8665 10.9692 14.4933 10.1334 15.2665 10.1334C16.0397 10.1334 16.6665 10.9692 16.6665 12.0001C16.6665 13.031 16.0397 13.8668 15.2665 13.8668Z"
    stroke="white" stroke-linecap="round" stroke-linejoin="round" />
</svg>