<svg xmlns="http://www.w3.org/2000/svg" viewBox="0 0 24 24" fill="none">
  <path
    d="M15.7331 21.3584V18.6798C15.7682 18.2347 15.708 17.7873 15.5568 17.3673C15.4055 16.9473 15.1665 16.5643 14.8558 16.2438C17.7865 15.9171 20.8665 14.8064 20.8665 9.71042C20.8662 8.40733 20.365 7.15421 19.4665 6.21042C19.8919 5.07036 19.8619 3.81021 19.3825 2.69175C19.3825 2.69175 18.2811 2.36509 15.7331 4.07309C13.594 3.49332 11.339 3.49332 9.19981 4.07309C6.65181 2.36509 5.55048 2.69175 5.55048 2.69175C5.0711 3.81021 5.04101 5.07036 5.46648 6.21042C4.56126 7.16121 4.0595 8.42565 4.06648 9.73842C4.06648 14.7971 7.14648 15.9078 10.0771 16.2718C9.77008 16.5891 9.53326 16.9675 9.3821 17.3823C9.23094 17.7972 9.16883 18.2393 9.19981 18.6798V21.3584"
    stroke="white" stroke-linecap="round" stroke-linejoin="round" />
  <path d="M9.19984 19.4916C6.39984 20.4 4.0665 19.4916 2.6665 16.6917" stroke="white"
    stroke-linecap="round" stroke-linejoin="round" />
</svg>