<svg xmlns="http://www.w3.org/2000/svg" viewBox="0 0 1024 1024">
  <path
    fill="white"
    d="M456.533333 395.946667c8.533333 8.533333 12.8 18.773333 12.8 30.72s-4.266667 21.896533-12.8 29.866666c-7.970133 8.533333-17.92 12.8-29.866666 12.8s-22.186667-4.266667-30.72-12.8c-7.970133-7.970133-11.946667-17.92-11.946667-29.866666s3.976533-22.186667 11.946667-30.72c8.533333-7.970133 18.773333-11.946667 30.72-11.946667s21.896533 3.976533 29.866666 11.946667zM256 426.666667c0-11.946667 3.976533-22.186667 11.946667-30.72 8.533333-7.970133 18.773333-11.946667 30.72-11.946667s21.896533 3.976533 29.866666 11.946667c8.533333 8.533333 12.8 18.773333 12.8 30.72s-4.266667 21.896533-12.8 29.866666c-7.970133 8.533333-17.92 12.8-29.866666 12.8s-22.186667-4.266667-30.72-12.8c-7.970133-7.970133-11.946667-17.92-11.946667-29.866666z m-85.333333 42.666666c-11.946667 0-22.186667-4.266667-30.72-12.8-7.970133-7.970133-11.946667-17.92-11.946667-29.866666s3.976533-22.186667 11.946667-30.72c8.533333-7.970133 18.773333-11.946667 30.72-11.946667s21.896533 3.976533 29.866666 11.946667c8.533333 8.533333 12.8 18.773333 12.8 30.72s-4.266667 21.896533-12.8 29.866666c-7.970133 8.533333-17.92 12.8-29.866666 12.8z" />
  <path
    fill="white"
    d="M682.666667 955.733333H341.333333a17.066667 17.066667 0 0 1-17.066666-17.066666v-153.6h-153.6c-66.030933 0-102.4-36.369067-102.4-102.4V426.666667c0-66.030933 36.369067-102.4 102.4-102.4h153.6V85.333333a17.066667 17.066667 0 0 1 17.066666-17.066666h341.333334a17.066667 17.066667 0 0 1 17.066666 17.066666v238.933334h153.6c66.030933 0 102.4 36.369067 102.4 102.4v256c0 66.030933-36.369067 102.4-102.4 102.4h-153.6v153.6a17.066667 17.066667 0 0 1-17.066666 17.066666z m-324.266667-34.133333h307.2V614.4H358.4v307.2z m341.333333-170.666667h153.6c47.223467 0 68.266667-21.0432 68.266667-68.266666v-153.6H102.4v153.6c0 47.223467 21.0432 68.266667 68.266667 68.266666h153.6v-153.6a17.066667 17.066667 0 0 1 17.066666-17.066666h341.333334a17.066667 17.066667 0 0 1 17.066666 17.066666v153.6zM102.4 494.933333h819.2v-68.266666c0-47.223467-21.0432-68.266667-68.266667-68.266667H170.666667c-47.223467 0-68.266667 21.0432-68.266667 68.266667v68.266666z m256-170.666666h307.2V102.4H358.4v221.866667z" />
</svg>